<svg id="Layer_1" enable-background="new 0 0 512 512" height="512" viewBox="0 0 512 512" width="512" xmlns="http://www.w3.org/2000/svg"><g><path d="m451.9 60.1c-38.2-39.3-100.4-58.4-195.8-60.1-.1 0-.2 0-.3 0-95.3 1.7-157.5 20.8-195.7 60.1-39.3 38.2-58.4 100.4-60.1 195.8v.3c1.7 95.4 20.8 157.6 60.1 195.7 38.2 39.3 100.4 58.4 195.7 60.1h.1s.1 0 .1 0c95.4-1.7 157.6-20.8 195.7-60.1 39.3-38.2 58.4-100.4 60.1-195.7 0-.1 0-.2 0-.3-1.5-95.4-20.6-157.6-59.9-195.8zm-10.3 381.4c-.1.1-.1.1-.2.2-35.3 36.4-94.2 54.1-185.5 55.8-91.3-1.7-150.2-19.4-185.5-55.8-.1-.1-.1-.1-.2-.2-36.2-35.3-54-94.2-55.6-185.5 1.6-91.3 19.4-150.2 55.8-185.5l.2-.2c35.2-36.3 94.1-54.1 185.4-55.7 91.3 1.7 150.2 19.4 185.5 55.8.1.1.1.1.2.2 36.4 35.3 54.1 94.2 55.8 185.5-1.7 91.2-19.5 150.1-55.9 185.4z"/><path d="m397.1 346.6c-2.7-53.8-64.7-95.9-141.1-95.9s-138.3 42.1-141.1 95.8v.4l-.1 23.2c0 26.9 21.9 48.8 48.8 48.8h184.7c26.9 0 48.8-21.9 48.8-48.8v-23.1c0-.1 0-.3 0-.4zm-48.7 57.7h-184.8c-18.9 0-34.2-15.3-34.2-34.2l.1-23c1.2-21.5 14.5-41.8 37.5-57.1 23.9-15.9 55.5-24.7 89-24.7s65.1 8.8 89 24.7c23 15.3 36.3 35.6 37.5 57.2v22.9c.1 18.8-15.3 34.2-34.1 34.2z"/><path d="m254.8 232.5c38.4 0 69.7-31.3 69.7-69.7s-31.3-69.7-69.7-69.7-69.7 31.3-69.7 69.7 31.2 69.7 69.7 69.7zm0-124.8c30.4 0 55.1 24.7 55.1 55.1s-24.7 55.1-55.1 55.1-55.1-24.7-55.1-55.1 24.7-55.1 55.1-55.1z"/></g></svg>